# xmcd CD database file
#
# Track frame offsets:
#	150
#	20110
#	32118
#	55117
#	79401
#	121928
#	135538
#	188406
#
# Disc length: 2931 seconds
#
# Revision: 0
# Processed by: cddbd v1.4PL0 Copyright (c) Steve Scherf et al.
# Submitted via: CDex 1.50
#
DISCID=640b7108
DTITLE=rik wright  - Isomorphism
DYEAR=2002
DGENRE=Jazz
TTITLE0=Minor You (prelude)
TTITLE1=Chaos Theory
TTITLE2=Incidental Blues
TTITLE3=Swimming Inside
TTITLE4=Speaking In Tongues
TTITLE5=Even Odds
TTITLE6=Some Assembly
TTITLE7=Minor You
EXTD=YEAR: 2002
EXTT0=
EXTT1=
EXTT2=
EXTT3=
EXTT4=
EXTT5=
EXTT6=
EXTT7=
PLAYORDER=
